<?xml version="1.0" encoding="utf-8"?>
<svg xmlns="http://www.w3.org/2000/svg">
<symbol id="clock" viewBox="0 0 24 24"><g data-name="Layer 2"><g data-name="clock"><path d="M12 2a10 10 0 1010 10A10 10 0 0012 2zm0 18a8 8 0 118-8 8 8 0 01-8 8z"/><path d="M16 11h-3V8a1 1 0 00-2 0v4a1 1 0 001 1h4a1 1 0 000-2z"/></g></g>
</symbol>
<symbol id="person" viewBox="0 0 24 24"><g data-name="Layer 2"><g data-name="person"><path d="M12 11a4 4 0 10-4-4 4 4 0 004 4zm0-6a2 2 0 11-2 2 2 2 0 012-2zM12 13a7 7 0 00-7 7 1 1 0 002 0 5 5 0 0110 0 1 1 0 002 0 7 7 0 00-7-7z"/></g></g>
</symbol></svg>